<svg width="24" height="24" viewBox="0 0 24 24" fill="none" xmlns="http://www.w3.org/2000/svg">
<g clip-path="url(#clip0_13_326)">
<path d="M12.018 11.9388H11.982C10.5528 11.9388 9.29398 11.5752 8.54878 12.2604C8.34632 12.4403 8.18502 12.6617 8.07589 12.9096C7.96675 13.1575 7.91235 13.426 7.91638 13.6968C7.91638 15.9192 9.69598 16.1928 11.9832 16.1928H12.018C14.304 16.1928 16.0848 15.918 16.0848 13.6968C16.0848 13.1652 15.8976 12.6696 15.4524 12.2604C14.706 11.5752 13.4472 11.9388 12.018 11.9388ZM10.0716 14.976C9.63598 14.976 9.28438 14.4864 9.28438 13.884C9.28438 13.2816 9.63598 12.7944 10.0716 12.7944C10.5072 12.7944 10.86 13.2816 10.86 13.884C10.8612 14.4864 10.5084 14.976 10.0716 14.976ZM13.9272 14.976C13.4916 14.976 13.1388 14.4864 13.1388 13.884C13.1388 13.2816 13.4916 12.7944 13.9272 12.7944C14.3616 12.7944 14.7144 13.2816 14.7144 13.884C14.7156 14.4864 14.3628 14.976 13.9272 14.976ZM12 0.47998C5.63758 0.47998 0.47998 5.63758 0.47998 12C0.47998 18.3624 5.63758 23.52 12 23.52C18.3624 23.52 23.52 18.3624 23.52 12C23.52 5.63758 18.3624 0.47998 12 0.47998ZM13.0512 16.7268C12.8448 16.7268 12.4344 16.7268 12 16.7292C11.5656 16.7268 11.1552 16.7268 10.9488 16.7268C10.0368 16.7268 6.42238 16.656 6.42238 12.3C6.42238 11.2992 6.76558 10.566 7.32838 9.95398C7.23958 9.73318 7.23478 8.47558 7.71238 7.27078C7.71238 7.27078 8.81158 7.39078 10.4736 8.53198C10.8204 8.43478 11.4108 8.38558 12 8.38558C12.5892 8.38558 13.1784 8.43478 13.5276 8.53078C15.1896 7.38958 16.2888 7.26958 16.2888 7.26958C16.7664 8.47438 16.7628 9.73318 16.6728 9.95278C17.2356 10.5648 17.5788 11.298 17.5788 12.2988C17.5776 16.6572 13.9632 16.7268 13.0512 16.7268Z" fill="white"/>
</g>
<defs>
<clipPath id="clip0_13_326">
<rect width="24" height="24" fill="white"/>
</clipPath>
</defs>
</svg>
